<?xml version="1.0" standalone="no"?>
<!DOCTYPE svg PUBLIC "-//W3C//DTD SVG 20010904//EN"
 "http://www.w3.org/TR/2001/REC-SVG-20010904/DTD/svg10.dtd">
<svg version="1.0" xmlns="http://www.w3.org/2000/svg"
 width="1026.000000pt" height="1280.000000pt" viewBox="0 0 1026.000000 1280.000000"
 preserveAspectRatio="xMidYMid meet">
<metadata>
Created by potrace 1.15, written by Peter Selinger 2001-2017
</metadata>
<g transform="translate(0.000000,1280.000000) scale(0.100000,-0.100000)"
fill="#000000" stroke="none">
<path d="M7013 12790 c-136 -19 -249 -60 -323 -116 -39 -29 -32 -29 75 9 137
48 227 62 410 62 188 0 250 -11 362 -66 124 -60 201 -169 223 -316 l11 -73
-52 -75 c-67 -97 -112 -135 -160 -135 -51 0 -54 9 -10 40 76 55 108 176 76
285 -31 109 -100 193 -188 230 -41 17 -157 21 -157 5 0 -5 9 -10 20 -10 31 0
118 -36 155 -65 44 -33 80 -81 100 -131 8 -22 9 -30 2 -20 -34 54 -94 107
-155 138 -67 35 -98 46 -202 73 -30 7 -46 14 -34 14 19 1 54 29 54 44 0 10
-127 8 -238 -3 -60 -5 -109 -16 -139 -31 -26 -13 -42 -24 -36 -26 6 -2 51 3
100 11 48 9 94 16 101 16 17 0 15 -20 -5 -42 -15 -17 -12 -18 106 -18 140 0
200 -12 232 -46 21 -22 21 -25 6 -48 -9 -14 -33 -37 -52 -52 -35 -26 -41 -27
-153 -27 -178 0 -290 32 -557 158 -192 91 -250 107 -396 113 -195 7 -333 -25
-494 -116 -205 -116 -228 -150 -189 -282 20 -66 100 -150 189 -197 94 -50 98
-54 85 -84 -19 -42 -66 -63 -140 -62 -65 1 -195 -29 -546 -127 -286 -80 -507
-169 -655 -265 -88 -57 -207 -170 -250 -236 -66 -104 -139 -321 -139 -416 0
-51 26 -120 50 -133 16 -8 18 1 24 108 12 197 44 298 106 333 40 23 50 41 50
96 0 19 10 43 25 61 45 53 289 208 475 302 147 74 283 112 570 160 209 35 260
47 412 96 132 42 185 43 256 8 29 -14 51 -31 49 -38 -8 -24 -106 -88 -197
-127 -140 -61 -212 -96 -240 -118 -94 -74 156 21 335 127 33 19 91 58 128 86
l68 50 -50 12 c-59 13 -89 33 -69 45 23 15 80 10 183 -16 64 -16 111 -23 130
-19 27 6 23 9 -42 25 -39 10 -90 27 -113 39 -141 72 -208 226 -152 352 22 50
87 112 146 139 22 10 34 19 26 19 -38 0 -138 -60 -185 -112 -53 -57 -100 -140
-98 -171 1 -10 26 -51 56 -90 30 -40 57 -80 60 -90 9 -26 -16 -32 -78 -18
-121 27 -204 141 -213 289 -3 67 -1 83 20 122 53 99 166 149 349 157 165 7
336 -24 230 -42 -22 -3 -47 -13 -58 -21 -17 -14 -15 -15 17 -9 143 24 235 15
265 -28 14 -20 12 -21 -53 -42 -93 -30 -128 -50 -182 -104 -82 -82 -102 -201
-52 -315 19 -41 24 -46 54 -46 46 0 94 -32 101 -66 8 -42 -19 -130 -58 -188
-19 -29 -77 -92 -129 -140 -53 -48 -105 -101 -117 -119 l-23 -32 28 25 c21 19
30 22 44 13 23 -14 18 -38 -31 -158 -42 -104 -54 -192 -34 -256 8 -25 6 -28
-27 -39 -20 -6 -69 -36 -109 -67 -77 -58 -125 -83 -162 -83 -23 0 -23 0 -9 59
23 101 73 198 164 319 42 55 25 54 -39 -4 -43 -38 -64 -71 -127 -200 -43 -87
-80 -151 -86 -148 -17 11 -38 72 -38 112 0 54 38 124 126 227 86 101 109 133
102 141 -8 7 -194 -192 -228 -245 -36 -54 -65 -130 -73 -194 l-7 -48 57 -26
c94 -43 150 -38 274 26 124 63 204 96 413 167 90 31 177 54 200 54 57 0 110
16 131 40 23 25 14 26 -86 5 -40 -9 -112 -18 -160 -22 l-88 -6 -11 27 c-5 15
-10 95 -10 177 0 90 -4 149 -10 149 -5 0 -17 -14 -26 -32 -17 -33 -16 -96 2
-275 6 -57 5 -63 -19 -87 -14 -14 -37 -26 -51 -26 -22 0 -25 6 -37 69 -23 134
1 258 77 383 57 94 226 328 237 328 5 0 39 -15 76 -32 99 -49 194 -151 324
-345 59 -90 111 -163 114 -163 12 0 -9 84 -31 128 -14 26 -57 92 -96 147 -40
55 -80 116 -90 136 -14 27 -30 40 -67 54 -81 30 -183 87 -204 113 -14 19 -19
38 -17 66 3 34 7 42 27 44 41 6 69 -7 79 -37 9 -25 18 -31 69 -41 469 -97 773
-242 1042 -495 l74 -70 -29 54 c-16 29 -56 81 -89 115 -100 102 -175 146 -568
330 -57 26 -96 50 -92 56 12 19 66 41 123 50 39 7 99 5 197 -5 167 -18 172
-18 159 -5 -5 5 -36 12 -69 16 -70 7 -105 26 -105 55 0 21 3 21 88 14 319 -25
697 -136 962 -283 240 -132 474 -328 610 -511 29 -39 55 -71 57 -71 3 0 -10
26 -27 58 -213 380 -612 640 -1225 798 l-150 39 140 3 c366 8 694 -91 985
-297 274 -195 501 -547 488 -756 -2 -36 -9 -70 -16 -77 -17 -17 -110 8 -377
102 -340 120 -498 165 -652 185 -50 6 -53 9 -81 58 -122 215 -332 405 -502
455 -49 14 -80 21 -80 17 0 -2 38 -27 85 -55 199 -120 359 -262 404 -358 14
-29 21 -55 17 -59 -4 -5 -112 -8 -239 -8 -128 0 -253 -4 -278 -8 l-45 -9 -73
86 c-94 111 -235 244 -323 306 -67 47 -156 86 -180 78 -6 -2 51 -44 127 -94
178 -114 244 -175 290 -266 49 -98 48 -104 -24 -112 -38 -4 -68 -14 -83 -27
l-23 -20 70 7 c205 20 626 20 838 -1 61 -6 77 -11 77 -24 0 -33 65 -127 137
-199 85 -85 117 -145 236 -443 217 -543 312 -1061 246 -1342 -22 -95 -22 -165
2 -193 12 -15 15 -13 22 17 15 63 20 439 8 580 -33 367 -132 768 -266 1070
-70 158 -120 235 -215 335 -59 61 -90 101 -95 123 -4 18 -4 35 -1 39 11 10
214 -53 424 -132 219 -82 354 -126 457 -151 74 -17 247 -46 252 -41 5 5 -46
182 -77 269 -80 221 -230 453 -382 592 -283 259 -642 400 -1120 441 -43 3 -78
9 -78 12 0 3 11 28 24 56 72 153 51 293 -61 397 -84 78 -176 122 -328 155 -84
19 -286 26 -372 14z m-1180 -258 c-17 -15 -52 -44 -76 -65 -51 -41 -72 -90
-63 -140 3 -18 26 -67 50 -109 24 -43 41 -80 38 -83 -11 -10 -63 -5 -92 10
-65 34 -120 145 -120 245 0 59 0 60 38 78 20 11 69 31 109 46 40 15 83 38 95
51 21 22 25 22 38 9 13 -14 12 -18 -17 -42z m1605 -67 c49 -42 82 -118 82
-193 0 -149 -84 -183 -104 -42 -11 73 -26 84 -26 18 0 -127 -69 -225 -174
-249 -67 -15 -91 -10 -90 19 0 12 -2 21 -5 19 -90 -50 -205 -70 -274 -48 -20
7 -52 31 -71 53 -29 33 -34 46 -29 72 9 49 41 104 64 111 16 5 18 9 8 15 -36
23 -107 -55 -140 -153 -29 -87 -89 -90 -171 -8 -54 54 -57 68 -28 142 21 58
19 74 -10 59 -23 -12 -36 -58 -45 -159 -9 -100 -12 -106 -40 -73 -55 66 -70
147 -41 215 50 118 265 204 440 178 121 -18 189 -59 103 -62 -76 -3 139 -30
253 -32 112 -2 130 0 172 21 48 24 85 78 74 108 -9 22 19 16 52 -11z"/>
<path d="M6727 12326 c-113 -47 -157 -100 -142 -173 l8 -38 8 44 c10 55 44 91
126 138 98 54 98 69 0 29z"/>
<path d="M7602 11895 c4 -4 43 -22 86 -39 154 -62 309 -168 523 -356 78 -69
162 -143 188 -165 l46 -40 -29 40 c-157 213 -348 382 -539 475 -90 43 -132 57
-252 85 -16 4 -27 3 -23 0z"/>
<path d="M6254 11718 c-28 -29 -84 -91 -125 -137 l-74 -85 44 25 c55 31 148
130 184 197 16 29 27 52 25 52 -2 0 -26 -24 -54 -52z"/>
<path d="M5265 11735 c-357 -114 -686 -336 -787 -530 -77 -149 -81 -266 -9
-308 55 -32 60 -26 45 56 -20 101 -18 130 12 190 117 233 452 498 678 536 76
13 120 32 129 56 8 18 -11 18 -68 0z"/>
<path d="M6569 11731 c6 -10 49 -50 95 -90 96 -80 120 -116 170 -250 19 -51
47 -112 63 -135 24 -35 28 -38 31 -20 5 33 -26 141 -60 208 -57 113 -133 200
-237 270 -60 40 -77 45 -62 17z"/>
<path d="M8230 11706 c0 -2 44 -36 98 -77 123 -93 337 -306 427 -426 38 -51
71 -90 73 -88 2 2 -17 42 -42 89 -111 203 -274 374 -435 456 -45 22 -121 52
-121 46z"/>
<path d="M7220 11650 c73 -43 124 -85 254 -208 138 -131 155 -125 44 15 -77
98 -225 197 -323 218 -23 5 -18 0 25 -25z"/>
<path d="M5853 11570 c-46 -22 -95 -51 -109 -65 l-27 -27 24 -12 c13 -7 23
-18 22 -24 -2 -7 0 -12 3 -12 27 0 149 94 174 135 36 58 26 58 -87 5z"/>
<path d="M4720 11544 c-251 -134 -433 -284 -492 -405 -63 -129 -57 -312 11
-348 17 -9 18 -3 24 92 17 265 103 393 405 597 131 88 174 121 160 120 -2 0
-50 -25 -108 -56z"/>
<path d="M5275 11580 c-13 -5 -14 -9 -5 -9 8 0 24 4 35 9 13 5 14 9 5 9 -8 0
-24 -4 -35 -9z"/>
<path d="M6486 11523 c31 -71 142 -285 154 -297 22 -23 -19 153 -50 214 -20
40 -107 140 -121 140 -5 0 3 -26 17 -57z"/>
<path d="M5118 11516 c-70 -29 -151 -76 -144 -83 10 -11 141 46 176 77 42 35
40 36 -32 6z"/>
<path d="M5182 11460 c-133 -99 -229 -221 -272 -343 -22 -61 -41 -267 -26
-267 4 0 20 7 36 15 35 18 41 46 38 160 -3 76 -1 85 35 159 47 94 140 196 224
245 62 37 83 57 83 78 0 27 -39 11 -118 -47z"/>
<path d="M5524 11441 c-38 -27 -83 -81 -67 -81 14 1 126 85 131 98 7 21 -23
13 -64 -17z"/>
<path d="M4831 11318 c-84 -102 -115 -167 -108 -232 4 -43 10 -55 42 -83 42
-36 53 -37 35 -3 -7 14 -11 51 -8 94 3 63 10 83 61 184 31 61 53 112 47 112
-5 0 -36 -33 -69 -72z"/>
<path d="M5518 11251 c-140 -223 -159 -319 -81 -411 35 -43 43 -37 26 18 -29
93 1 230 89 405 21 43 38 82 36 87 -2 4 -33 -41 -70 -99z"/>
<path d="M5614 11227 c-98 -176 -120 -287 -68 -344 20 -22 24 -23 19 -8 -15
41 -17 116 -6 162 7 26 35 96 63 155 27 60 48 113 46 118 -2 6 -26 -32 -54
-83z"/>
<path d="M5356 11251 c-80 -132 -123 -262 -109 -334 7 -39 27 -79 45 -95 12
-9 14 3 15 73 1 96 11 146 59 299 19 60 33 110 31 113 -3 2 -21 -23 -41 -56z"/>
<path d="M5126 11138 c-44 -80 -64 -136 -72 -204 -6 -46 -4 -56 21 -88 31 -40
59 -53 81 -35 13 10 12 15 -8 36 -20 22 -23 35 -23 111 0 62 7 108 23 161 13
40 21 75 19 78 -3 2 -21 -24 -41 -59z"/>
<path d="M7672 11143 c-22 -4 -20 -9 35 -66 70 -73 127 -155 177 -255 116
-231 167 -443 246 -1032 55 -408 78 -561 86 -569 3 -3 3 24 0 59 -3 36 -11
130 -17 210 -48 655 -162 1130 -357 1484 -39 71 -51 101 -43 109 20 20 115
-104 190 -246 147 -276 238 -667 301 -1289 24 -238 25 -359 4 -504 -18 -125
-13 -197 18 -263 l21 -46 9 95 c10 106 3 491 -12 675 -24 294 -69 572 -135
840 -69 279 -154 528 -186 546 -10 5 -55 52 -100 104 -101 118 -168 160 -237
148z"/>
<path d="M8100 11084 c0 -26 14 -47 70 -109 223 -245 378 -703 461 -1365 7
-52 13 -210 13 -350 1 -221 4 -263 20 -312 19 -60 39 -79 31 -30 -2 15 -7 113
-10 217 -12 444 -69 873 -156 1181 -88 315 -211 551 -393 759 l-35 40 -1 -31z"/>
<path d="M7160 11069 c29 -54 151 -152 150 -121 -1 16 -117 131 -138 137 -22
6 -23 5 -12 -16z"/>
<path d="M7290 11078 c1 -32 72 -109 87 -95 10 11 -19 77 -40 92 -26 18 -47
19 -47 3z"/>
<path d="M7581 11028 c60 -74 155 -265 198 -396 47 -143 114 -472 100 -487 -3
-2 -44 107 -93 243 -119 333 -246 595 -317 657 -18 16 -17 11 7 -25 79 -118
164 -301 233 -503 112 -327 221 -927 221 -1224 0 -115 1 -123 25 -150 l24 -28
0 45 c1 25 -8 113 -19 195 -20 148 -25 327 -11 375 11 38 38 -121 56 -340 15
-175 31 -274 54 -330 14 -37 14 -8 -4 128 -8 64 -31 263 -50 441 -54 500 -92
734 -156 966 -41 148 -132 335 -200 409 -44 49 -94 86 -113 86 -3 0 17 -28 45
-62z m335 -1019 c9 -18 14 -59 14 -116 -1 -88 -1 -88 -19 -65 -14 15 -21 46
-26 100 -3 42 -9 90 -12 107 -5 27 -4 28 11 16 10 -8 24 -27 32 -42z"/>
<path d="M8426 11049 c44 -87 154 -239 154 -214 0 9 -61 112 -109 184 -42 63
-73 83 -45 30z"/>
<path d="M7054 11009 c140 -166 271 -584 341 -1084 42 -303 56 -477 62 -805 5
-286 3 -329 -16 -465 -22 -160 -20 -201 15 -253 l19 -27 6 95 c11 154 10 750
-1 950 -36 657 -130 1120 -292 1444 -54 108 -84 151 -114 165 -41 18 -47 13
-20 -20z"/>
<path d="M6830 11010 c-12 -8 -7 -17 30 -56 54 -55 81 -68 115 -52 14 6 25 14
24 17 0 3 -25 27 -55 54 -53 46 -84 56 -114 37z"/>
<path d="M6680 10947 c46 -69 124 -239 155 -332 99 -305 152 -681 160 -1130
l5 -240 -25 185 c-66 491 -100 690 -155 911 -50 199 -145 439 -210 534 -32 46
-74 75 -109 75 -17 0 -12 -11 34 -71 226 -301 376 -822 394 -1374 l7 -210 44
-100 44 -100 6 -165 c5 -154 15 -210 38 -210 4 0 6 28 5 62 -49 1445 -125
1902 -355 2141 -66 68 -68 69 -38 24z"/>
<path d="M8590 10966 c0 -2 26 -30 58 -63 77 -80 126 -164 218 -373 79 -181
94 -209 94 -174 0 37 -30 123 -75 216 -52 107 -56 133 -20 142 37 9 20 26 -26
26 -47 0 -58 17 -34 54 16 24 16 25 -12 39 -15 8 -64 42 -108 76 -70 54 -95
69 -95 57z"/>
<path d="M8058 10935 c-3 -4 9 -30 27 -58 54 -84 60 -91 74 -82 8 5 9 10 3 14
-5 3 -23 33 -38 66 -26 54 -50 76 -66 60z"/>
<path d="M6432 10910 c8 -14 36 -61 63 -105 67 -111 128 -244 160 -350 43
-144 46 -148 41 -70 -8 113 -67 261 -162 405 -44 67 -128 166 -102 120z"/>
<path d="M7294 10884 c20 -51 78 -263 101 -368 90 -408 135 -799 189 -1656
l13 -205 2 300 c2 451 -33 837 -115 1300 -43 241 -118 554 -147 615 -15 30
-54 43 -43 14z"/>
<path d="M8876 10891 c-8 -12 57 -81 76 -81 29 0 25 12 -17 51 -45 41 -51 44
-59 30z"/>
<path d="M6256 10838 c29 -47 244 -280 244 -265 0 23 -56 112 -100 160 -46 51
-162 136 -144 105z"/>
<path d="M9089 10799 c265 -373 450 -940 471 -1444 8 -184 17 -237 48 -280 12
-18 13 -9 7 75 -3 52 -15 172 -26 265 -78 663 -237 1120 -479 1375 l-61 65 40
-56z"/>
<path d="M6090 10800 c14 -27 86 -114 184 -225 173 -196 219 -299 215 -480 -2
-98 0 -114 19 -145 70 -111 97 -306 87 -635 -7 -234 4 -416 30 -496 14 -40 78
-120 88 -108 3 2 1 31 -4 64 -5 33 -11 250 -15 483 -4 232 -10 422 -14 422 -3
0 -11 -5 -17 -11 -26 -26 -40 -1 -47 78 -40 455 -232 872 -479 1041 -53 37
-62 39 -47 12z"/>
<path d="M7474 10775 c104 -395 202 -878 243 -1195 19 -150 23 -473 11 -845
l-7 -220 19 90 c93 441 49 1088 -115 1690 -53 194 -136 468 -146 485 -8 12 -9
11 -5 -5z"/>
<path d="M9357 10723 c46 -85 153 -264 271 -453 222 -358 317 -574 377 -855
l24 -110 0 66 c2 190 -73 423 -217 670 -336 580 -349 601 -429 692 -26 29 -50
54 -55 55 -5 2 8 -27 29 -65z"/>
<path d="M9518 10702 c295 -386 492 -819 587 -1287 56 -281 69 -422 69 -785 1
-361 -3 -418 -60 -820 -33 -240 -76 -489 -188 -1095 -80 -438 -121 -718 -160
-1100 -51 -496 -52 -519 -26 -728 24 -199 20 -284 -19 -373 l-22 -48 -20 29
c-53 80 -76 229 -86 555 -14 498 58 1126 212 1830 18 85 32 157 30 159 -8 7
-54 -29 -67 -51 -7 -13 -15 -76 -19 -148 -5 -110 -11 -140 -48 -255 -73 -225
-119 -611 -136 -1155 -8 -232 9 -638 30 -745 22 -106 21 -194 -1 -237 l-17
-33 -19 42 c-26 60 -38 132 -38 237 0 137 -17 305 -35 356 -28 79 -36 179 -36
455 0 457 34 753 172 1475 100 522 138 737 164 910 34 224 33 247 -10 200 -14
-16 -16 -30 -11 -77 7 -59 -8 -141 -69 -383 -89 -351 -197 -1065 -242 -1590
-22 -257 -25 -911 -5 -1130 21 -232 75 -600 88 -600 3 0 22 9 43 19 53 27 64
16 68 -66 17 -370 55 -629 128 -880 24 -85 43 -126 31 -68 -18 86 -78 477 -91
600 -9 77 -24 187 -35 244 -21 122 -18 158 16 189 41 36 51 29 58 -44 10 -99
42 -277 91 -504 24 -113 54 -259 65 -325 41 -230 84 -365 141 -437 27 -34 75
-68 95 -68 18 0 -8 107 -41 163 -96 168 -105 194 -114 334 -8 120 -13 142 -64
291 -90 260 -112 457 -112 977 0 322 4 412 22 590 13 116 34 354 48 530 53
671 95 951 179 1212 41 126 61 209 80 333 85 554 111 860 110 1295 0 351 -16
555 -53 692 -20 73 -184 519 -258 698 -25 61 -65 149 -88 196 -46 90 -209 368
-247 420 -27 36 -95 79 -127 79 -19 0 -15 -9 37 -78z"/>
<path d="M9200 10750 c0 -11 40 -77 89 -146 224 -320 370 -599 457 -876 15
-48 31 -133 39 -213 9 -94 19 -144 34 -173 48 -95 50 -47 4 171 -78 380 -219
704 -471 1085 -106 160 -152 206 -152 152z"/>
<path d="M6087 10639 c122 -137 196 -233 255 -332 22 -37 43 -66 45 -63 12 11
-53 126 -145 258 -55 79 -109 162 -121 186 -15 30 -28 42 -44 42 -12 1 -33 7
-47 15 -58 33 -45 8 57 -106z"/>
<path d="M4064 10687 c-129 -176 -262 -448 -342 -698 -62 -194 -75 -283 -77
-519 -1 -118 -7 -237 -13 -265 -69 -312 -74 -374 -43 -496 11 -41 46 -132 79
-204 74 -160 91 -217 99 -321 l6 -81 -127 -211 c-214 -356 -294 -451 -509
-600 -76 -52 -160 -119 -187 -149 -92 -101 -92 -190 1 -289 41 -43 82 -69 230
-144 193 -99 269 -156 300 -225 25 -53 24 -123 -2 -187 -17 -42 -48 -142 -49
-155 0 -2 9 -3 20 -3 32 0 87 57 104 107 22 65 21 201 -3 288 -28 102 -48 117
-344 254 -59 28 -126 65 -149 83 -43 34 -98 111 -98 138 0 8 104 112 230 230
327 305 450 451 549 652 54 111 84 195 106 300 l14 67 -60 148 c-184 451 -181
444 -166 467 22 33 54 126 67 192 6 32 15 181 20 329 14 444 58 600 302 1089
91 183 109 235 83 242 -5 2 -24 -16 -41 -39z"/>
<path d="M7085 10705 c48 -150 55 -186 140 -645 l34 -185 -5 110 c-12 240 -54
471 -113 613 -28 68 -68 144 -56 107z"/>
<path d="M7012 10583 c141 -576 167 -1401 64 -2020 -12 -73 -19 -133 -15 -133
8 0 34 31 48 57 53 103 89 824 62 1253 -21 341 -66 699 -101 812 -18 59 -67
148 -81 148 -3 0 7 -53 23 -117z"/>
<path d="M9080 10578 c129 -246 201 -495 307 -1053 l43 -230 -6 140 c-19 478
-136 876 -347 1183 -27 39 -51 72 -53 72 -2 0 23 -51 56 -112z"/>
<path d="M5817 10653 c-18 -17 -2 -41 46 -70 185 -113 312 -283 392 -525 18
-54 30 -98 27 -98 -7 0 -20 17 -124 165 -51 72 -115 153 -143 181 -46 46 -146
114 -169 114 -4 0 32 -44 81 -97 335 -368 436 -562 458 -875 2 -32 0 -58 -5
-58 -8 0 -23 39 -99 257 -39 113 -64 164 -120 240 -36 50 -105 103 -133 103
-18 0 -16 -4 12 -37 41 -49 132 -186 159 -241 70 -138 125 -314 158 -507 24
-144 24 -567 0 -760 -34 -264 -66 -416 -129 -615 -48 -152 -57 -205 -67 -395
-15 -269 3 -560 50 -815 27 -147 39 -187 103 -342 53 -129 59 -152 101 -399
25 -145 57 -319 70 -388 96 -502 135 -874 117 -1120 l-7 -95 -150 -27 c-427
-78 -788 -168 -2028 -509 -127 -35 -123 -35 -245 -11 -158 32 -295 41 -709 48
l-392 6 -16 71 c-21 92 -41 259 -50 416 -7 124 -7 125 -60 235 -84 174 -137
356 -165 571 -15 111 -8 444 10 491 7 20 29 43 59 63 58 37 85 65 76 79 -10
17 -36 13 -105 -12 -60 -23 -63 -25 -91 -88 -48 -108 -62 -194 -56 -338 6
-158 26 -235 146 -564 123 -335 135 -385 133 -522 -1 -81 4 -136 20 -206 23
-109 19 -160 -15 -184 -33 -23 -52 -18 -87 22 -64 73 -88 149 -115 378 -23
183 -45 257 -136 445 -58 122 -102 236 -168 437 -118 359 -183 497 -294 619
l-46 51 -83 -2 -83 -1 -32 -47 c-102 -150 -145 -431 -109 -704 28 -214 86
-404 175 -581 39 -76 120 -196 106 -157 -94 271 -164 529 -190 706 -18 125
-20 320 -4 422 19 124 95 301 135 314 13 4 115 -119 171 -206 80 -123 174
-343 301 -701 182 -510 222 -657 238 -868 l7 -92 -26 0 c-54 0 -77 50 -77 168
0 46 -5 74 -19 96 -11 17 -33 68 -50 112 -29 76 -80 151 -88 129 -4 -13 25
-129 72 -285 27 -92 39 -150 42 -221 l6 -96 -42 -16 c-58 -24 -161 -22 -210 2
-41 21 -92 74 -115 119 -44 84 -58 232 -31 331 16 61 33 81 128 158 37 29 67
61 67 69 0 44 -94 21 -151 -38 -47 -49 -107 -168 -145 -290 -16 -49 -30 -88
-33 -88 -4 0 -33 53 -66 117 -89 175 -217 402 -304 543 -43 69 -117 191 -164
271 -100 169 -181 292 -244 367 -104 122 -194 147 -274 75 -70 -64 -122 -200
-135 -353 -19 -221 110 -501 426 -930 80 -108 85 -118 85 -165 l0 -50 55 -27
c77 -39 184 -52 365 -44 83 3 174 9 203 12 59 8 65 -2 36 -57 -37 -72 -172
-92 -449 -69 l-149 13 -51 39 c-27 22 -54 48 -59 57 -5 9 -10 17 -11 19 -1 1
-17 -6 -36 -15 -25 -13 -58 -18 -126 -18 -97 0 -127 11 -160 62 -12 18 -12 23
3 38 15 15 28 16 83 10 109 -12 138 -11 160 10 31 27 26 33 -23 28 -23 -3 -75
2 -114 11 -111 25 -139 22 -178 -20 -19 -19 -34 -46 -34 -58 0 -41 42 -89 105
-121 56 -28 68 -30 171 -30 89 0 116 -3 130 -16 24 -21 68 -43 119 -59 22 -7
61 -21 87 -32 43 -19 47 -23 57 -69 6 -27 22 -151 36 -276 28 -257 46 -365 77
-472 l22 -73 -25 -19 c-13 -10 -55 -35 -92 -56 -64 -35 -117 -82 -117 -104 0
-5 11 -9 24 -9 22 0 42 12 160 93 46 32 86 35 111 7 28 -31 45 -21 63 35 24
71 59 88 167 81 44 -3 114 -14 155 -24 l75 -19 11 -134 c6 -74 20 -188 29
-254 11 -69 18 -177 18 -255 0 -207 -34 -310 -202 -595 -194 -330 -208 -398
-176 -814 10 -127 22 -231 27 -231 18 0 58 53 63 84 3 17 2 135 -3 261 -15
381 -2 433 197 774 50 85 104 186 120 225 61 148 65 316 12 631 -16 99 -33
208 -36 242 l-7 62 28 6 c108 23 173 42 293 87 127 47 278 98 292 98 4 0 9
-42 11 -92 8 -141 39 -240 137 -428 116 -225 146 -287 165 -344 29 -86 46
-184 46 -267 0 -43 4 -79 9 -79 5 0 21 15 36 32 26 31 27 37 22 108 -3 41 -17
113 -31 160 -34 113 -44 190 -24 190 31 0 79 -75 112 -176 19 -58 70 -144 86
-144 6 0 10 28 10 68 0 56 -5 80 -30 129 -30 60 -57 88 -257 270 -139 126
-185 232 -222 507 l-18 135 44 7 c89 13 343 -18 476 -59 44 -14 47 -14 47 2 0
39 -52 65 -163 80 -74 10 -140 42 -102 49 11 2 101 23 200 47 197 48 304 70
308 64 7 -9 57 -241 76 -349 40 -224 55 -397 55 -615 -1 -357 -34 -538 -196
-1055 -147 -472 -170 -549 -208 -697 -35 -134 -80 -354 -80 -390 0 -10 6 -10
28 -2 63 24 100 89 126 224 72 380 186 840 280 1136 92 288 124 422 137 562
20 227 -9 527 -92 930 -27 133 -49 247 -49 253 0 17 178 80 335 120 176 44
407 78 825 120 190 19 381 39 424 44 89 11 83 15 122 -65 29 -61 30 -96 4
-120 -19 -18 -19 -18 13 -35 90 -48 171 -302 213 -669 14 -119 15 -163 5 -255
-7 -77 -8 -122 -1 -148 11 -38 44 -87 54 -77 3 3 10 59 17 125 19 202 -2 460
-57 694 -31 129 -113 374 -159 477 -20 42 -34 78 -32 80 6 5 217 38 395 62
132 18 431 42 485 39 41 -3 -1 -168 -52 -199 -16 -11 -19 -20 -14 -58 5 -42
-1 -58 -62 -177 -50 -99 -66 -140 -63 -165 4 -48 23 -46 42 5 9 24 46 99 81
165 97 182 114 227 122 328 6 78 9 91 34 115 36 36 49 35 50 -4 6 -137 -48
-331 -173 -622 -42 -96 -49 -123 -42 -144 14 -39 27 -36 51 16 13 26 45 88 73
137 64 114 77 160 95 320 19 167 40 247 75 285 24 26 75 49 85 38 4 -4 -59
-282 -95 -413 -31 -118 -87 -280 -125 -363 -28 -59 -30 -70 -15 -62 43 23 119
149 153 255 36 112 108 415 118 494 5 46 14 92 20 102 12 24 50 34 86 22 32
-11 32 -16 7 -186 -28 -190 -82 -401 -153 -592 -21 -58 -35 -105 -30 -105 13
0 75 82 102 135 65 131 127 416 127 588 0 106 2 118 23 141 12 14 33 27 46 28
23 3 24 2 22 -82 -3 -165 -50 -384 -121 -564 -22 -55 -37 -102 -35 -105 11
-10 80 78 106 134 35 77 47 142 55 290 10 202 42 307 100 334 31 14 44 -4 44
-60 0 -26 4 -51 10 -54 9 -6 13 5 24 74 13 74 51 82 60 13 7 -58 -9 -285 -30
-407 -22 -129 -68 -303 -103 -387 -17 -39 -29 -73 -27 -75 2 -3 21 13 41 34
92 94 126 223 155 588 5 72 15 166 21 210 l12 81 43 18 c67 28 78 21 87 -54
10 -85 0 -234 -23 -342 -27 -123 -70 -246 -161 -461 -45 -104 -78 -191 -76
-194 3 -3 15 -2 26 2 38 12 181 334 222 500 14 57 23 136 28 270 8 202 19 248
62 278 12 9 26 14 30 12 15 -10 21 -172 9 -270 -6 -55 -27 -170 -46 -255 -75
-332 -91 -428 -67 -409 24 20 62 114 77 190 9 42 23 166 31 275 18 234 22 269
42 349 14 57 55 135 71 135 4 0 16 -14 26 -31 l18 -31 19 30 c22 37 48 52 90
52 50 0 67 -22 62 -78 -9 -107 -27 -221 -73 -477 -28 -148 -53 -305 -58 -347
-7 -70 -6 -78 9 -78 25 0 66 37 93 83 56 96 99 299 120 573 8 98 21 200 29
226 15 49 52 108 68 108 5 0 9 -53 9 -120 0 -73 4 -120 10 -120 6 0 10 35 10
85 0 129 33 185 107 185 39 0 37 8 52 -245 6 -99 16 -236 22 -305 6 -71 8
-191 5 -277 -8 -173 0 -221 42 -253 l27 -22 3 61 c2 34 -9 142 -23 239 -30
200 -36 371 -16 450 7 30 17 50 21 45 9 -10 33 -155 56 -343 18 -148 51 -276
86 -336 l23 -39 3 50 c5 77 -13 184 -73 448 -72 312 -84 416 -64 539 l15 91
-33 19 c-18 11 -33 23 -34 26 -3 25 -10 155 -25 487 -19 404 -24 1046 -11
1333 7 145 6 172 -6 172 -39 0 -40 -14 -38 -498 2 -467 -4 -661 -20 -645 -4 4
-13 113 -19 241 -11 227 0 767 18 942 l7 65 19 -27 c32 -48 46 -36 46 40 0
216 40 622 100 1020 72 475 80 528 94 649 7 65 10 119 5 121 -17 7 -9 107 15
197 l25 90 -33 -38 c-41 -46 -58 -104 -86 -295 -14 -98 -35 -185 -66 -278 -68
-206 -84 -339 -109 -944 -8 -201 -20 -414 -26 -475 -10 -99 -15 -115 -46 -163
-54 -82 -67 -177 -60 -432 4 -113 17 -326 31 -475 14 -148 28 -315 31 -370 4
-55 16 -145 26 -200 24 -128 24 -181 -1 -222 -16 -28 -77 -71 -85 -61 -36 43
-55 172 -65 438 -5 135 -15 270 -21 300 -7 30 -13 117 -13 192 -1 95 -5 141
-13 149 -11 10 -13 -19 -13 -146 0 -88 5 -187 10 -220 6 -33 15 -204 20 -380
9 -317 19 -404 53 -485 l14 -35 1 39 c0 60 52 77 98 31 21 -21 24 -31 18 -62
-16 -88 -12 -86 -129 -81 -57 2 -109 8 -114 13 -6 6 -13 42 -17 80 -5 58 -4
73 9 84 14 11 16 9 15 -11 -3 -50 3 -85 17 -104 10 -13 17 -16 22 -7 13 19 -5
285 -47 708 -47 474 -60 632 -60 731 0 41 -4 74 -8 74 -14 0 -50 -43 -62 -75
-9 -23 -8 -55 4 -140 32 -228 59 -653 54 -872 -3 -114 -8 -215 -12 -224 -8
-19 -88 -42 -97 -27 -3 5 -9 44 -13 86 -3 43 -11 129 -16 191 -6 63 -24 324
-40 580 -40 621 -54 797 -86 1035 -8 67 -14 195 -14 325 0 163 -3 212 -12 203
-8 -8 -11 -78 -9 -244 2 -243 12 -393 62 -943 43 -481 59 -719 59 -906 0 -169
-7 -232 -37 -327 -18 -58 -16 -64 39 -150 16 -27 19 -38 10 -57 -9 -20 -20
-23 -100 -30 -50 -4 -99 -4 -111 0 -29 9 -27 50 4 87 32 38 32 75 1 99 -45 35
-51 94 -48 434 2 290 0 333 -32 675 -68 705 -93 1077 -105 1530 -8 318 0 893
14 1004 6 46 5 56 -7 56 -25 0 -47 -34 -58 -90 -13 -67 -12 -304 1 -435 5 -55
14 -271 19 -480 4 -209 15 -443 24 -520 28 -257 44 -526 76 -1320 12 -275 25
-527 31 -560 38 -225 33 -271 -34 -334 l-26 -23 -19 31 c-11 18 -25 58 -31 89
-24 120 -71 879 -71 1152 0 90 -6 137 -25 214 -72 285 -89 610 -60 1141 34
621 46 915 36 915 -12 0 -28 -16 -38 -35 -6 -11 -11 -92 -11 -185 0 -91 -8
-298 -18 -460 -11 -180 -18 -427 -19 -635 l0 -340 37 -225 c68 -408 72 -465
112 -1400 6 -163 15 -301 20 -308 4 -6 26 -12 49 -12 102 0 156 -38 113 -79
-36 -34 -74 -27 -123 21 l-42 41 -7 -29 c-4 -16 -14 -37 -22 -46 -33 -38 -39
-6 -46 240 -11 376 -28 637 -76 1157 -69 741 -83 974 -83 1380 1 389 12 556
56 800 27 153 32 204 32 340 0 98 -4 167 -11 178 -9 15 -12 -2 -17 -81 -7
-100 -29 -272 -66 -522 -32 -212 -44 -402 -44 -705 1 -351 21 -660 88 -1300
26 -247 55 -585 65 -755 13 -210 13 -600 1 -600 -16 0 -51 51 -60 89 -5 20 -9
144 -10 276 0 410 -22 771 -57 963 -9 46 -15 100 -14 120 3 63 0 83 -10 77
-15 -9 -12 -173 5 -336 31 -292 45 -522 52 -856 l6 -342 -29 -6 c-16 -3 -37
-8 -46 -10 -10 -2 -29 6 -43 17 -33 26 -45 16 -45 -40 0 -66 -17 -119 -39
-125 -24 -6 -35 1 -53 38 -32 64 -40 153 -33 350 8 221 -3 336 -90 995 -30
223 -57 434 -61 470 -5 36 -10 58 -12 48 -1 -9 11 -139 27 -290 45 -409 70
-735 86 -1148 4 -85 13 -180 21 -211 20 -82 18 -113 -12 -148 -30 -36 -37 -34
-64 19 -24 48 -25 93 -4 196 14 64 16 112 10 250 -12 324 -48 592 -176 1298
-49 270 -97 547 -107 616 -17 120 -18 123 -21 63 -2 -47 -7 -63 -17 -63 -8 0
-15 2 -15 4 0 1 -13 55 -30 117 -66 252 -96 567 -87 904 7 223 11 264 91 895
67 523 79 677 80 985 1 279 -9 405 -45 585 -71 348 -219 614 -463 833 -80 71
-112 88 -129 70z m2660 -3269 c-8 -33 -27 -104 -41 -159 -19 -68 -28 -128 -29
-188 -2 -73 -4 -84 -14 -70 -19 25 -16 114 7 250 18 104 61 281 78 323 14 32
12 -101 -1 -156z m-72 -484 c4 -12 0 -26 -10 -36 -19 -20 -23 -17 -31 24 -6
28 -4 32 14 32 12 0 23 -9 27 -20z m-21 -151 c7 -41 2 -59 -15 -59 -5 0 -9 23
-9 50 0 60 15 66 24 9z m-7220 -1478 c88 -61 154 -147 306 -398 40 -67 102
-156 137 -198 42 -49 76 -104 97 -153 18 -42 76 -150 129 -238 114 -192 162
-284 179 -348 12 -47 12 -49 -14 -71 -46 -40 -124 -50 -273 -36 -183 17 -176
14 -208 74 -15 29 -77 122 -138 207 -252 351 -367 551 -404 705 -47 188 3 401
108 466 18 10 33 19 35 19 2 0 23 -13 46 -29z m5532 -953 c3 -51 1 -178 -3
-283 l-8 -189 -45 -14 c-71 -21 -244 -50 -370 -61 -142 -13 -610 -26 -610 -18
0 16 199 100 380 159 380 126 531 171 541 161 8 -8 8 -26 0 -63 -13 -62 -14
-108 -2 -94 13 15 61 195 77 291 7 48 14 122 14 163 1 106 19 68 26 -52z m-96
-107 c0 -24 -35 -68 -69 -86 -15 -7 -73 -25 -127 -39 -98 -25 -211 -63 -489
-166 -287 -105 -519 -166 -735 -190 -106 -12 -430 -15 -487 -4 -35 7 -25 11
117 49 85 24 312 86 503 139 434 120 795 212 1042 264 105 22 199 42 210 45
11 3 23 5 28 6 4 0 7 -7 7 -18z m1354 -237 c11 -28 6 -84 -9 -120 -14 -35 -17
-36 -52 -30 -53 10 -83 46 -83 102 l0 44 44 0 c25 0 48 5 51 10 10 16 42 12
49 -6z m406 -40 c0 -49 -2 -55 -15 -44 -13 10 -35 69 -35 93 0 4 11 7 25 7 24
0 25 -3 25 -56z m-6180 -134 c75 -147 234 -202 376 -130 32 16 62 30 66 30 11
0 74 -110 101 -176 50 -124 120 -445 101 -463 -14 -14 -217 -79 -297 -95 -40
-8 -109 -17 -154 -21 l-82 -7 -16 39 c-92 219 -165 685 -140 898 l8 70 9 -53
c4 -29 17 -70 28 -92z m5058 42 c3 -41 3 -42 -21 -31 -18 8 -38 8 -76 0 -29
-6 -63 -11 -76 -11 -22 0 -55 23 -55 38 0 4 36 7 80 7 69 0 82 3 102 23 31 30
42 23 46 -26z m981 -42 c25 0 28 -17 4 -23 -10 -3 -40 -5 -68 -6 -27 0 -153
-12 -280 -26 -205 -22 -495 -50 -1195 -115 -962 -90 -1536 -155 -2080 -234
l-165 -24 -50 31 c-221 137 -290 150 -895 167 -208 6 -384 15 -443 25 -113 17
-262 64 -327 103 l-45 27 185 3 c197 4 456 -7 925 -38 160 -10 353 -22 430
-26 77 -3 147 -10 157 -15 9 -5 23 -28 30 -51 17 -51 53 -80 103 -81 48 -1 65
21 65 88 l0 52 373 7 c370 7 946 27 1317 46 434 23 1766 102 1885 113 17 1 35
-3 41 -10 6 -7 21 -13 33 -13z m-188 -172 c20 -75 8 -173 -69 -573 -9 -44 -10
-37 -11 71 -1 76 8 195 24 320 14 109 25 205 25 211 0 29 20 10 31 -29z
m-5977 26 c11 -4 16 -19 16 -48 0 -53 15 -144 45 -282 14 -61 25 -129 25 -152
0 -38 -2 -40 -37 -47 -105 -19 -243 -120 -243 -177 0 -35 13 -62 52 -106 38
-44 36 -86 -4 -89 -15 -1 -36 -7 -47 -12 -11 -6 -33 -11 -49 -11 -29 0 -30 2
-61 108 -52 181 -83 368 -97 602 -4 63 -8 117 -8 119 -2 9 59 20 167 31 106
10 186 34 201 59 8 12 17 14 40 5z m6331 -91 c-3 -13 -10 -23 -15 -23 -12 0
-14 93 -3 104 11 10 24 -53 18 -81z m-5525 -30 c0 -16 9 -46 19 -68 10 -22 21
-52 25 -67 6 -28 6 -28 -42 -28 l-49 0 -13 70 c-16 84 -6 120 35 120 21 0 25
-5 25 -27z m139 -8 c36 -18 58 -72 67 -160 l7 -67 -49 25 c-65 33 -104 76
-115 126 -14 62 -3 91 33 91 16 0 42 -7 57 -15z m596 -35 c42 -13 115 -78 115
-102 0 -12 -17 -17 -67 -21 -38 -3 -120 -21 -183 -41 -72 -23 -145 -39 -196
-43 l-82 -6 -27 41 c-26 39 -75 160 -75 184 0 15 462 4 515 -12z m360 -11 c38
-10 43 -14 35 -29 -15 -28 -84 -50 -158 -50 -63 0 -68 2 -80 28 -11 24 -10 29
9 45 25 20 125 23 194 6z m275 -88 c0 -14 -196 -106 -308 -145 -149 -52 -270
-83 -412 -106 -412 -66 -505 -94 -701 -211 -98 -58 -243 -126 -314 -149 -90
-28 -225 -37 -296 -20 -119 28 -228 108 -244 179 -9 44 19 86 79 116 75 38 93
33 56 -15 -11 -14 -20 -41 -20 -61 0 -34 3 -38 48 -57 78 -33 123 -42 218 -42
210 0 414 72 537 190 48 47 57 61 57 91 0 27 -8 43 -35 69 -43 42 -46 67 -7
72 46 6 93 -9 131 -41 20 -17 55 -43 79 -57 l42 -26 128 25 c70 15 217 50 327
80 244 66 373 94 485 106 119 12 150 12 150 2z m-2016 -380 c4 -5 2 -21 -4
-35 -7 -19 -17 -26 -37 -26 -43 0 -57 13 -44 38 13 25 74 41 85 23z"/>
<path d="M8961 10515 c171 -351 304 -909 344 -1440 10 -132 38 -304 54 -330
10 -17 19 75 20 204 1 162 -19 291 -85 546 -30 116 -81 321 -114 457 -98 405
-154 555 -245 656 l-42 46 68 -139z"/>
<path d="M6531 10495 c-2 -20 28 -172 58 -300 17 -71 39 -192 50 -268 10 -76
22 -141 25 -144 3 -4 6 23 6 58 0 84 -41 333 -79 481 -28 109 -58 196 -60 173z"/>
<path d="M8804 10425 c3 -11 14 -51 25 -90 32 -111 88 -359 110 -485 32 -185
42 -306 39 -466 -3 -139 -1 -152 21 -197 13 -26 25 -46 27 -44 5 5 -22 415
-36 542 -27 243 -74 473 -128 620 -29 80 -67 159 -58 120z"/>
<path d="M8973 10250 c2 -14 27 -119 55 -235 98 -410 145 -684 140 -832 -3
-90 -2 -93 25 -120 l29 -28 -7 100 c-25 389 -77 688 -163 936 -36 103 -84 213
-79 179z"/>
<path d="M6430 10122 c0 -13 30 -52 41 -52 14 0 11 27 -7 44 -16 17 -34 21
-34 8z"/>
<path d="M8404 10010 c70 -362 110 -710 122 -1063 7 -190 12 -210 44 -172 10
12 12 66 7 243 -6 228 -20 358 -58 552 -25 126 -108 463 -116 470 -3 3 -3 -11
1 -30z"/>
<path d="M6796 9620 c16 -493 19 -559 33 -572 11 -11 12 38 8 292 -5 267 -8
314 -26 380 l-20 75 5 -175z"/>
<path d="M7270 9714 c0 -6 11 -136 25 -289 46 -505 44 -836 -6 -1089 -11 -54
-18 -100 -16 -103 9 -9 57 60 66 95 31 115 39 531 16 797 -14 163 -72 585 -81
594 -2 2 -4 0 -4 -5z"/>
<path d="M4474 9200 c-27 -4 -98 -11 -156 -15 -106 -7 -106 -7 -119 -37 -6
-16 -44 -57 -83 -91 -130 -114 -171 -160 -185 -207 -7 -27 -9 -54 -4 -67 8
-20 12 -18 78 39 249 214 437 290 720 292 104 1 139 -3 174 -17 81 -33 176
-94 322 -208 79 -61 167 -127 196 -145 52 -33 147 -84 158 -84 3 0 5 13 5 28
0 32 -16 49 -89 95 -27 18 -103 75 -168 128 -199 162 -345 248 -480 283 -65
17 -272 20 -369 6z"/>
<path d="M6957 8863 c-4 -133 -13 -225 -36 -362 -29 -175 -51 -401 -38 -401
16 0 81 313 102 494 16 144 23 415 11 435 -4 6 -13 11 -20 11 -10 0 -15 -41
-19 -177z"/>
<path d="M6821 8824 c-2 -119 -20 -319 -47 -519 -14 -104 -27 -257 -29 -340
-5 -148 -4 -149 10 -90 22 92 63 384 75 534 11 151 12 336 0 426 l-7 60 -2
-71z"/>
<path d="M8041 8833 c-15 -54 -13 -89 5 -107 16 -17 34 -21 34 -8 1 4 4 26 9
49 8 43 -8 103 -28 103 -6 0 -15 -17 -20 -37z"/>
<path d="M4460 8560 c-71 -100 -84 -211 -50 -425 l22 -139 -23 -19 c-13 -11
-46 -31 -74 -44 -52 -27 -135 -35 -205 -21 -34 7 -36 6 -57 -37 -13 -25 -23
-56 -23 -70 0 -24 1 -25 58 -19 70 7 179 -14 261 -52 58 -25 61 -26 108 -11
26 9 92 27 145 41 184 48 249 97 293 218 21 57 24 61 72 77 72 24 100 46 108
81 4 17 5 34 2 37 -13 12 -82 -23 -212 -107 -76 -49 -154 -94 -174 -100 -63
-17 -123 -12 -179 16 l-53 26 7 57 c3 31 1 114 -5 184 -13 140 -4 227 29 283
13 23 15 35 7 43 -18 18 -34 13 -57 -19z"/>
<path d="M6595 8529 c-3 -29 -20 -123 -36 -206 -28 -149 -36 -268 -19 -308 6
-17 9 -13 14 20 4 22 23 119 42 215 36 187 43 284 20 315 -12 17 -14 14 -21
-36z"/>
<path d="M6670 8515 c0 -20 5 -25 25 -25 20 0 25 5 25 25 0 20 -5 25 -25 25
-20 0 -25 -5 -25 -25z"/>
<path d="M8957 8307 c-9 -334 -23 -450 -152 -1227 -138 -830 -160 -1010 -159
-1315 1 -297 18 -351 27 -85 10 280 30 451 107 905 23 132 63 395 90 585 27
190 63 440 80 555 72 488 80 773 22 808 -5 4 -11 -82 -15 -226z"/>
<path d="M8025 8163 c-12 -124 -36 -266 -71 -418 -74 -320 -98 -451 -109 -598
-6 -85 4 -277 15 -277 4 0 10 57 13 128 8 165 33 321 107 682 75 363 101 525
86 540 -24 24 -35 9 -41 -57z"/>
<path d="M9237 8073 c-3 -60 -22 -218 -42 -353 -20 -135 -38 -299 -40 -365
l-4 -120 19 105 c32 167 122 811 116 826 -3 8 -14 14 -24 14 -17 0 -20 -11
-25 -107z"/>
<path d="M9535 8135 c-28 -27 -30 -47 -14 -128 12 -59 -6 -350 -37 -582 -7
-60 -21 -160 -29 -221 -78 -588 -110 -1271 -103 -2198 l5 -638 -51 -24 c-82
-38 -83 -37 -88 64 -3 61 -10 98 -24 122 l-19 35 -4 -35 c-4 -44 15 -181 40
-284 19 -78 29 -104 29 -74 0 23 30 45 88 62 51 15 52 15 78 -9 25 -23 27 -33
35 -152 12 -175 32 -313 89 -618 27 -143 56 -321 64 -397 16 -142 42 -225 83
-260 19 -17 19 -17 17 10 -12 111 -32 224 -70 402 -81 369 -93 432 -134 681
-42 258 -48 359 -25 422 12 35 11 42 -5 70 -26 44 -37 98 -54 277 -32 327 -39
502 -33 890 7 459 14 561 93 1345 49 492 81 834 93 1015 6 85 13 176 16 203 5
53 -4 59 -40 22z"/>
<path d="M8360 8081 c0 -5 -14 -100 -30 -212 -112 -746 -162 -1324 -144 -1664
l8 -150 7 170 c29 679 94 1279 189 1742 15 72 17 99 9 109 -13 16 -39 19 -39
5z"/>
<path d="M6877 7910 c-37 -152 -73 -362 -94 -557 -21 -201 -24 -874 -5 -1123
15 -191 61 -671 97 -1010 50 -467 61 -619 83 -1080 l7 -155 23 23 c22 22 23
23 18 260 -6 286 -29 567 -62 757 -71 411 -85 501 -108 730 -43 428 -50 559
-50 920 0 381 2 411 64 785 43 257 63 437 58 515 -3 49 -4 47 -31 -65z"/>
<path d="M7767 7920 c-51 -269 -77 -560 -76 -838 2 -238 2 -239 49 263 55 591
63 767 27 575z"/>
<path d="M7608 7918 c-102 -330 -126 -825 -82 -1693 15 -309 22 -362 54 -428
l20 -42 -5 155 c-4 85 -20 306 -37 490 -24 264 -31 389 -32 590 0 279 2 305
64 583 47 210 65 349 50 377 -6 11 -12 20 -14 20 -1 0 -10 -24 -18 -52z"/>
<path d="M8187 7863 c-5 -9 -24 -124 -32 -198 -3 -27 -10 -153 -15 -280 -10
-210 -30 -397 -101 -925 -16 -116 -17 -489 -2 -545 l11 -40 1 40 c6 240 26
485 81 1025 39 379 56 598 63 813 4 113 3 126 -6 110z"/>
<path d="M3782 7768 c-18 -18 -14 -29 17 -68 35 -42 45 -36 36 19 -7 45 -34
68 -53 49z"/>
<path d="M6442 7658 c-7 -62 -17 -174 -23 -248 -13 -158 -13 -770 0 -850 7
-43 9 -15 10 135 1 183 20 524 41 731 26 255 24 344 -8 344 -5 0 -13 -51 -20
-112z"/>
<path d="M9362 7768 c-11 -35 -42 -287 -41 -333 1 -69 17 -126 18 -63 1 21 8
87 16 148 9 61 14 143 12 183 -1 40 -4 69 -5 65z"/>
<path d="M6987 7648 c-99 -618 -86 -1316 39 -1997 9 -51 18 -90 20 -89 1 2 -3
66 -11 143 -55 549 -69 838 -62 1268 5 328 17 491 46 679 11 63 7 98 -9 98 -4
0 -14 -46 -23 -102z"/>
<path d="M9121 7740 c-54 -242 -73 -423 -51 -475 7 -16 9 -12 9 20 1 22 10 81
21 130 34 157 43 236 32 285 -5 25 -10 43 -11 40z"/>
<path d="M8767 7700 c-18 -51 -78 -356 -111 -575 -66 -422 -128 -1142 -125
-1449 l2 -141 18 215 c81 971 123 1316 211 1763 23 120 28 163 21 180 -9 17
-12 19 -16 7z"/>
<path d="M7838 7684 c-5 -4 -8 -33 -8 -64 0 -32 -13 -148 -30 -259 -25 -173
-50 -486 -35 -456 2 6 11 62 19 125 9 63 27 193 41 288 25 165 32 386 13 366z"/>
<path d="M6671 7550 c-69 -253 -86 -424 -86 -845 0 -353 7 -453 50 -730 16
-99 13 -63 -11 190 -20 209 -23 713 -6 860 7 58 30 156 55 235 37 121 42 146
42 235 0 55 -5 108 -11 119 -9 16 -15 6 -33 -64z"/>
<path d="M8987 7512 c-104 -459 -162 -944 -187 -1571 -5 -139 -10 -312 -10
-383 l0 -130 29 31 c20 21 38 31 59 31 l30 0 5 363 c6 372 16 495 57 711 23
118 86 346 99 359 5 5 7 -22 5 -60 -26 -461 -32 -1107 -13 -1428 11 -184 35
-428 38 -373 1 36 16 43 46 24 l25 -16 0 247 c0 228 15 507 41 743 5 52 23
214 39 360 55 495 77 882 50 865 -6 -4 -10 -56 -10 -122 0 -109 -1 -117 -23
-137 -23 -22 -24 -27 -30 -267 -3 -134 -17 -363 -31 -509 -14 -146 -35 -362
-46 -480 -11 -118 -24 -286 -27 -373 -3 -86 -8 -156 -10 -154 -2 2 -11 102
-20 223 -21 282 -24 1022 -5 1234 14 155 39 367 48 413 5 26 3 28 -18 25 -21
-3 -23 -9 -26 -60 -2 -40 -7 -58 -16 -58 -10 0 -13 14 -12 51 1 34 -3 53 -11
56 -8 3 -13 -5 -13 -20 0 -13 -27 -134 -60 -268 -51 -204 -63 -269 -76 -411
-13 -149 -31 -238 -49 -238 -9 0 18 446 41 645 22 196 62 483 90 644 14 79 23
145 21 147 -2 2 -16 -49 -30 -114z m-111 -1518 c12 -28 12 -46 2 -99 -20 -112
-46 -66 -40 71 4 79 14 87 38 28z m-12 -358 l-9 -121 -19 39 c-16 33 -18 55
-13 132 6 108 13 125 34 94 13 -19 14 -41 7 -144z"/>
<path d="M3494 6886 c-28 -12 -84 -63 -84 -76 0 -3 24 -5 53 -6 28 0 116 -13
194 -29 79 -16 145 -26 149 -23 8 9 -20 59 -48 85 -61 57 -190 81 -264 49z"/>
<path d="M7650 6745 c0 -43 4 -75 10 -75 6 0 10 32 10 75 0 43 -4 75 -10 75
-6 0 -10 -32 -10 -75z"/>
<path d="M7771 6519 l-1 -75 44 -3 44 -2 4 56 c1 31 -1 66 -5 78 -8 22 -9 22
-23 -5 -8 -16 -20 -28 -27 -28 -7 0 -18 12 -24 28 -9 23 -11 17 -12 -49z"/>
<path d="M7810 6155 c0 -18 10 -31 33 -45 17 -11 35 -20 40 -20 4 0 7 20 7 45
l0 45 -40 0 c-36 0 -40 -2 -40 -25z"/>
<path d="M3558 6076 c-76 -18 -139 -34 -141 -37 -2 -2 -11 -23 -21 -47 l-16
-43 39 -45 c52 -60 164 -158 250 -221 2 -1 -16 -25 -41 -51 -50 -54 -78 -100
-78 -131 0 -36 41 -131 62 -142 50 -27 62 22 27 115 l-21 55 26 32 c15 18 42
62 61 99 40 79 47 86 103 93 52 6 72 21 72 53 0 22 -4 24 -43 24 -34 0 -53 -7
-88 -34 -24 -19 -56 -38 -71 -41 -24 -6 -29 -2 -47 32 -10 21 -47 65 -81 98
-53 52 -90 101 -90 119 0 3 13 3 29 0 19 -4 53 2 94 17 92 33 123 22 226 -81
100 -100 141 -121 248 -129 123 -10 125 -15 51 -135 -85 -139 -156 -207 -244
-236 -118 -39 -164 -69 -164 -109 0 -18 123 -1 180 25 65 29 118 79 205 190
76 96 124 140 182 166 47 21 50 26 29 66 -21 41 -80 68 -201 92 -106 22 -111
24 -147 65 -21 24 -77 69 -123 101 -47 31 -88 61 -91 65 -8 13 -27 11 -176
-25z"/>
<path d="M6653 5825 c0 -22 2 -30 4 -17 2 12 2 30 0 40 -3 9 -5 -1 -4 -23z"/>
<path d="M7890 5822 c0 -37 21 -122 31 -122 13 0 11 50 -2 91 -15 44 -29 59
-29 31z"/>
<path d="M8006 5767 c-8 -60 2 -87 30 -87 20 0 17 57 -5 105 l-18 40 -7 -58z"/>
<path d="M6662 5740 c0 -19 2 -27 5 -17 2 9 2 25 0 35 -3 9 -5 1 -5 -18z"/>
<path d="M7840 5736 c0 -19 5 -38 10 -41 6 -4 10 8 10 29 0 19 -4 38 -10 41
-6 4 -10 -8 -10 -29z"/>
<path d="M2992 5648 c6 -18 94 -197 195 -397 186 -371 266 -555 308 -714 26
-95 80 -384 90 -479 6 -52 34 -108 54 -108 4 0 2 46 -5 103 -53 431 -176 819
-414 1302 -155 313 -162 325 -205 325 l-34 0 11 -32z"/>
<path d="M7581 5632 c-1 -30 37 -632 50 -797 6 -71 14 -265 19 -430 8 -272 20
-395 39 -395 3 0 5 17 4 38 -2 20 -10 253 -18 517 -8 264 -19 541 -25 615 -16
210 -66 535 -69 452z"/>
<path d="M8005 5575 c-5 -39 -4 -60 6 -71 12 -14 14 -14 26 2 25 35 12 124
-18 124 -4 0 -11 -25 -14 -55z"/>
<path d="M8028 5398 c-7 -71 18 -156 39 -135 4 4 1 13 -5 19 -7 7 -12 41 -12
80 0 69 -16 95 -22 36z"/>
<path d="M8647 5290 c-10 -172 -9 -356 3 -344 16 16 32 204 25 299 -12 159
-20 173 -28 45z"/>
<path d="M8788 5359 c-10 -5 -18 -21 -18 -35 0 -26 27 -42 93 -58 27 -6 27 -6
27 49 l0 55 -42 0 c-24 0 -51 -5 -60 -11z"/>
<path d="M3676 5173 c6 -28 23 -60 79 -150 27 -43 30 -56 29 -123 -1 -61 -9
-96 -43 -190 -54 -149 -59 -197 -31 -274 31 -82 127 -177 236 -233 214 -111
371 -101 1024 67 107 27 202 50 211 50 11 0 21 -20 34 -67 32 -121 71 -183
113 -183 21 0 7 76 -29 155 -16 35 -29 78 -29 94 0 32 5 34 300 123 19 6 126
44 237 85 148 55 209 83 232 105 29 28 42 68 23 68 -21 0 -220 -71 -452 -162
-535 -210 -708 -261 -1033 -303 -131 -17 -397 -20 -495 -5 -157 22 -209 57
-254 170 -19 47 -22 74 -22 190 0 139 6 166 64 306 12 28 10 37 -39 137 -41
86 -59 113 -93 137 -53 38 -71 39 -62 3z"/>
<path d="M8500 4852 c0 -76 9 -211 21 -310 27 -224 23 -336 -14 -409 -23 -47
-24 -53 -10 -65 10 -8 37 -12 73 -11 91 5 94 -1 96 -158 1 -87 9 -175 23 -249
21 -115 26 -247 12 -285 -8 -20 -8 -20 -15 2 -4 11 -14 27 -23 35 -15 12 -15
6 -9 -62 6 -65 47 -365 62 -457 4 -29 7 -31 29 -23 21 8 27 6 39 -13 8 -12 17
-38 21 -57 9 -43 31 -80 49 -80 8 0 16 10 20 23 13 48 4 94 -35 186 -89 207
-113 389 -129 986 -14 527 -35 775 -79 910 l-9 30 -3 -40 c-4 -71 2 -167 18
-305 16 -142 13 -218 -13 -278 -12 -28 -17 -33 -23 -22 -15 28 -31 165 -46
400 -15 243 -27 337 -44 367 -8 13 -10 -20 -11 -115z"/>
<path d="M8838 4888 c-8 -21 2 -38 23 -38 24 0 36 -27 22 -48 -17 -27 -30 -24
-51 13 -12 19 -27 35 -33 35 -19 0 -5 -505 20 -740 41 -388 50 -488 61 -655
22 -334 59 -482 135 -545 16 -13 17 -13 12 5 -15 48 -78 405 -101 570 -41 297
-60 647 -37 684 7 10 18 4 50 -28 l41 -41 0 -79 c0 -123 17 -262 71 -581 40
-232 51 -322 52 -420 1 -84 6 -129 15 -138 6 -7 12 -22 12 -32 0 -35 22 -70
45 -70 l22 0 -18 153 c-10 83 -43 296 -73 472 -61 351 -83 505 -92 653 l-7 97
52 24 c49 24 51 24 71 6 20 -18 20 -18 20 158 0 106 -4 177 -10 177 -9 0 -12
-11 -30 -139 -13 -89 -23 -105 -63 -97 -39 8 -54 21 -78 67 -21 42 -39 203
-39 356 0 51 -5 115 -11 143 -10 48 -12 50 -44 50 -18 0 -35 -6 -37 -12z m63
-248 c15 -46 23 -100 27 -187 4 -110 2 -126 -17 -166 -43 -88 -47 -74 -55 166
-3 122 -9 240 -12 262 l-6 40 21 -25 c12 -14 31 -54 42 -90z"/>
<path d="M9964 4611 c-70 -32 -94 -86 -52 -115 29 -21 81 -20 125 0 37 18 83
71 83 97 0 39 -88 49 -156 18z"/>
<path d="M9555 4158 c-10 -24 -1 -153 10 -153 13 0 19 145 6 158 -7 7 -12 5
-16 -5z"/>
<path d="M9245 4055 c2 -11 9 -63 15 -115 14 -112 67 -422 111 -640 19 -94 34
-208 38 -290 8 -142 21 -185 63 -214 12 -9 24 -14 26 -11 3 2 -5 41 -16 87
-23 91 -50 245 -82 468 -50 348 -116 678 -145 716 -14 18 -14 18 -10 -1z"/>
<path d="M9150 4014 c0 -24 32 -333 46 -449 8 -71 31 -222 49 -335 48 -288 57
-332 62 -326 11 11 -38 454 -82 731 -36 230 -76 430 -75 379z"/>
<path d="M9586 3947 c-12 -26 1 -206 25 -340 22 -124 54 -248 104 -407 18 -58
39 -132 45 -165 16 -85 39 -134 72 -151 15 -8 28 -12 28 -9 0 3 -11 31 -24 63
-27 67 -67 186 -96 292 -48 173 -136 602 -143 695 -2 31 -5 36 -11 22z"/>
<path d="M8584 3850 c4 -93 48 -365 61 -379 7 -6 -4 184 -16 286 -5 46 -18
109 -29 140 l-20 58 4 -105z"/>
<path d="M8227 3623 c-11 -10 -8 -123 3 -123 6 0 10 28 10 65 0 65 -1 71 -13
58z"/>
<path d="M7770 3558 c0 -13 -5 -29 -12 -36 -7 -7 -14 -69 -19 -159 -8 -162
-18 -206 -107 -458 -46 -130 -62 -188 -77 -275 -9 -59 10 -22 69 126 89 227
128 402 142 647 4 64 11 117 15 117 12 0 11 47 -1 55 -6 3 -10 -4 -10 -17z"/>
<path d="M880 3511 c-47 -10 -148 -37 -225 -59 -224 -65 -293 -80 -429 -96
-135 -16 -173 -30 -209 -77 -18 -25 -18 -29 -3 -80 48 -165 173 -269 361 -299
78 -12 151 -3 310 41 119 33 221 46 279 35 29 -6 36 -11 36 -30 0 -13 11 -54
25 -90 14 -37 25 -75 25 -84 0 -10 13 -31 30 -47 19 -18 44 -64 67 -124 40
-104 87 -165 135 -177 l28 -6 -16 38 c-9 22 -51 113 -94 204 -74 158 -150 346
-150 371 0 15 -193 6 -330 -16 -142 -23 -315 -30 -382 -16 -99 21 -187 99
-213 189 -6 22 -6 22 115 22 l121 0 63 48 c185 142 370 212 559 212 144 0 222
-33 412 -175 49 -36 96 -64 104 -63 34 7 18 38 -64 126 -70 74 -101 99 -163
129 -73 37 -80 38 -191 40 -83 2 -140 -3 -201 -16z m-475 -211 c-22 -24 -66
-37 -162 -46 -77 -7 -88 -1 -53 31 15 14 44 20 113 25 50 4 98 8 106 8 10 2 9
-3 -4 -18z"/>
<path d="M7187 3329 c-4 -81 -17 -151 -59 -317 l-55 -212 -52 -60 c-65 -74
-84 -117 -68 -150 7 -12 17 -23 22 -23 15 0 94 138 133 233 79 193 119 386
109 522 -10 123 -23 126 -30 7z"/>
<path d="M8146 3338 c-3 -18 -14 -96 -26 -174 -34 -224 -26 -327 28 -387 16
-18 18 -12 34 125 9 78 21 177 27 218 6 41 11 114 11 163 l0 87 -35 0 c-31 0
-35 -3 -39 -32z"/>
<path d="M9836 3168 c14 -84 27 -128 41 -140 14 -11 15 -10 10 7 -3 11 -8 38
-12 60 -8 52 -27 105 -37 105 -4 0 -5 -15 -2 -32z"/>
<path d="M1251 2204 c-16 -155 -48 -339 -131 -754 -175 -873 -178 -1008 -30
-1225 15 -22 46 -77 69 -123 53 -105 92 -125 155 -79 19 14 18 17 -28 68 -66
74 -122 158 -161 243 -82 179 -77 266 50 966 36 195 76 430 90 522 27 184 50
459 41 483 -3 8 -14 15 -24 15 -17 0 -20 -13 -31 -116z"/>
</g>
</svg>
